<mxfile host="Electron" modified="2023-11-18T22:13:22.766Z" agent="Mozilla/5.0 (Windows NT 10.0; WOW64) AppleWebKit/537.36 (KHTML, like Gecko) draw.io/22.0.3 Chrome/114.0.5735.289 Electron/25.8.4 Safari/537.36" etag="1Mc9nZu_weM_D3jEhQW6" version="22.0.3" type="device">
  <diagram name="Page-1" id="DyBIeQ2-N-A1No2JxCCL">
    <mxGraphModel dx="1036" dy="654" grid="1" gridSize="10" guides="1" tooltips="1" connect="1" arrows="1" fold="1" page="1" pageScale="1" pageWidth="850" pageHeight="1100" math="0" shadow="0">
      <root>
        <mxCell id="0" />
        <mxCell id="1" parent="0" />
        <mxCell id="J1GzMyRLVdquHeXBhNb9-1" value="&#xa;&lt;span style=&quot;color: rgb(240, 240, 240); font-family: Helvetica; font-size: 12px; font-style: normal; font-variant-ligatures: normal; font-variant-caps: normal; font-weight: 400; letter-spacing: normal; orphans: 2; text-align: center; text-indent: 0px; text-transform: none; widows: 2; word-spacing: 0px; -webkit-text-stroke-width: 0px; background-color: rgb(27, 29, 30); text-decoration-thickness: initial; text-decoration-style: initial; text-decoration-color: initial; float: none; display: inline !important;&quot;&gt;Mul&lt;/span&gt;&#xa;&#xa;" style="whiteSpace=wrap;html=1;aspect=fixed;" vertex="1" parent="1">
          <mxGeometry x="120" y="100" width="80" height="80" as="geometry" />
        </mxCell>
        <mxCell id="J1GzMyRLVdquHeXBhNb9-3" value="" style="endArrow=none;html=1;rounded=0;exitX=1;exitY=0.5;exitDx=0;exitDy=0;" edge="1" parent="1" source="J1GzMyRLVdquHeXBhNb9-1">
          <mxGeometry width="50" height="50" relative="1" as="geometry">
            <mxPoint x="400" y="360" as="sourcePoint" />
            <mxPoint x="270" y="140" as="targetPoint" />
          </mxGeometry>
        </mxCell>
        <mxCell id="J1GzMyRLVdquHeXBhNb9-5" value="reg" style="rounded=1;whiteSpace=wrap;html=1;" vertex="1" parent="1">
          <mxGeometry x="270" y="125" width="80" height="30" as="geometry" />
        </mxCell>
        <mxCell id="J1GzMyRLVdquHeXBhNb9-8" value="" style="endArrow=none;html=1;rounded=0;entryX=1;entryY=0.5;entryDx=0;entryDy=0;" edge="1" parent="1" target="J1GzMyRLVdquHeXBhNb9-5">
          <mxGeometry width="50" height="50" relative="1" as="geometry">
            <mxPoint x="400" y="140" as="sourcePoint" />
            <mxPoint x="450" y="310" as="targetPoint" />
          </mxGeometry>
        </mxCell>
        <mxCell id="J1GzMyRLVdquHeXBhNb9-10" value="" style="endArrow=none;html=1;rounded=0;" edge="1" parent="1">
          <mxGeometry width="50" height="50" relative="1" as="geometry">
            <mxPoint x="400" y="200" as="sourcePoint" />
            <mxPoint x="400" y="140" as="targetPoint" />
          </mxGeometry>
        </mxCell>
        <mxCell id="J1GzMyRLVdquHeXBhNb9-11" value="" style="endArrow=none;html=1;rounded=0;" edge="1" parent="1">
          <mxGeometry width="50" height="50" relative="1" as="geometry">
            <mxPoint x="400" y="200" as="sourcePoint" />
            <mxPoint x="440" y="200" as="targetPoint" />
          </mxGeometry>
        </mxCell>
        <mxCell id="J1GzMyRLVdquHeXBhNb9-12" value="Adder" style="rounded=0;whiteSpace=wrap;html=1;" vertex="1" parent="1">
          <mxGeometry x="440" y="180" width="120" height="80" as="geometry" />
        </mxCell>
        <mxCell id="J1GzMyRLVdquHeXBhNb9-13" value="&#xa;&lt;span style=&quot;color: rgb(240, 240, 240); font-family: Helvetica; font-size: 12px; font-style: normal; font-variant-ligatures: normal; font-variant-caps: normal; font-weight: 400; letter-spacing: normal; orphans: 2; text-align: center; text-indent: 0px; text-transform: none; widows: 2; word-spacing: 0px; -webkit-text-stroke-width: 0px; background-color: rgb(27, 29, 30); text-decoration-thickness: initial; text-decoration-style: initial; text-decoration-color: initial; float: none; display: inline !important;&quot;&gt;Mul&lt;/span&gt;&#xa;&#xa;" style="whiteSpace=wrap;html=1;aspect=fixed;" vertex="1" parent="1">
          <mxGeometry x="120" y="260" width="80" height="80" as="geometry" />
        </mxCell>
        <mxCell id="J1GzMyRLVdquHeXBhNb9-14" value="" style="endArrow=none;html=1;rounded=0;exitX=1;exitY=0.5;exitDx=0;exitDy=0;" edge="1" parent="1" source="J1GzMyRLVdquHeXBhNb9-13">
          <mxGeometry width="50" height="50" relative="1" as="geometry">
            <mxPoint x="400" y="520" as="sourcePoint" />
            <mxPoint x="270" y="300" as="targetPoint" />
          </mxGeometry>
        </mxCell>
        <mxCell id="J1GzMyRLVdquHeXBhNb9-15" value="reg" style="rounded=1;whiteSpace=wrap;html=1;" vertex="1" parent="1">
          <mxGeometry x="270" y="285" width="80" height="30" as="geometry" />
        </mxCell>
        <mxCell id="J1GzMyRLVdquHeXBhNb9-16" value="" style="endArrow=none;html=1;rounded=0;entryX=1;entryY=0.5;entryDx=0;entryDy=0;" edge="1" parent="1" target="J1GzMyRLVdquHeXBhNb9-15">
          <mxGeometry width="50" height="50" relative="1" as="geometry">
            <mxPoint x="400" y="300" as="sourcePoint" />
            <mxPoint x="450" y="470" as="targetPoint" />
          </mxGeometry>
        </mxCell>
        <mxCell id="J1GzMyRLVdquHeXBhNb9-17" value="" style="endArrow=none;html=1;rounded=0;" edge="1" parent="1">
          <mxGeometry width="50" height="50" relative="1" as="geometry">
            <mxPoint x="400" y="240" as="sourcePoint" />
            <mxPoint x="400" y="300" as="targetPoint" />
          </mxGeometry>
        </mxCell>
        <mxCell id="J1GzMyRLVdquHeXBhNb9-18" value="" style="endArrow=none;html=1;rounded=0;entryX=0;entryY=0.75;entryDx=0;entryDy=0;" edge="1" parent="1" target="J1GzMyRLVdquHeXBhNb9-12">
          <mxGeometry width="50" height="50" relative="1" as="geometry">
            <mxPoint x="400" y="240" as="sourcePoint" />
            <mxPoint x="450" y="210" as="targetPoint" />
          </mxGeometry>
        </mxCell>
        <mxCell id="J1GzMyRLVdquHeXBhNb9-19" value="&#xa;&lt;span style=&quot;color: rgb(240, 240, 240); font-family: Helvetica; font-size: 12px; font-style: normal; font-variant-ligatures: normal; font-variant-caps: normal; font-weight: 400; letter-spacing: normal; orphans: 2; text-align: center; text-indent: 0px; text-transform: none; widows: 2; word-spacing: 0px; -webkit-text-stroke-width: 0px; background-color: rgb(27, 29, 30); text-decoration-thickness: initial; text-decoration-style: initial; text-decoration-color: initial; float: none; display: inline !important;&quot;&gt;Mul&lt;/span&gt;&#xa;&#xa;" style="whiteSpace=wrap;html=1;aspect=fixed;" vertex="1" parent="1">
          <mxGeometry x="120" y="360" width="80" height="80" as="geometry" />
        </mxCell>
        <mxCell id="J1GzMyRLVdquHeXBhNb9-20" value="" style="endArrow=none;html=1;rounded=0;exitX=1;exitY=0.5;exitDx=0;exitDy=0;" edge="1" parent="1" source="J1GzMyRLVdquHeXBhNb9-19">
          <mxGeometry width="50" height="50" relative="1" as="geometry">
            <mxPoint x="400" y="620" as="sourcePoint" />
            <mxPoint x="270" y="400" as="targetPoint" />
          </mxGeometry>
        </mxCell>
        <mxCell id="J1GzMyRLVdquHeXBhNb9-21" value="reg" style="rounded=1;whiteSpace=wrap;html=1;" vertex="1" parent="1">
          <mxGeometry x="270" y="385" width="80" height="30" as="geometry" />
        </mxCell>
        <mxCell id="J1GzMyRLVdquHeXBhNb9-22" value="" style="endArrow=none;html=1;rounded=0;entryX=1;entryY=0.5;entryDx=0;entryDy=0;" edge="1" parent="1" target="J1GzMyRLVdquHeXBhNb9-21">
          <mxGeometry width="50" height="50" relative="1" as="geometry">
            <mxPoint x="400" y="400" as="sourcePoint" />
            <mxPoint x="450" y="570" as="targetPoint" />
          </mxGeometry>
        </mxCell>
        <mxCell id="J1GzMyRLVdquHeXBhNb9-23" value="" style="endArrow=none;html=1;rounded=0;" edge="1" parent="1">
          <mxGeometry width="50" height="50" relative="1" as="geometry">
            <mxPoint x="400" y="460" as="sourcePoint" />
            <mxPoint x="400" y="400" as="targetPoint" />
          </mxGeometry>
        </mxCell>
        <mxCell id="J1GzMyRLVdquHeXBhNb9-24" value="" style="endArrow=none;html=1;rounded=0;" edge="1" parent="1">
          <mxGeometry width="50" height="50" relative="1" as="geometry">
            <mxPoint x="400" y="460" as="sourcePoint" />
            <mxPoint x="440" y="460" as="targetPoint" />
          </mxGeometry>
        </mxCell>
        <mxCell id="J1GzMyRLVdquHeXBhNb9-25" value="Adder" style="rounded=0;whiteSpace=wrap;html=1;" vertex="1" parent="1">
          <mxGeometry x="440" y="440" width="120" height="80" as="geometry" />
        </mxCell>
        <mxCell id="J1GzMyRLVdquHeXBhNb9-26" value="&#xa;&lt;span style=&quot;color: rgb(240, 240, 240); font-family: Helvetica; font-size: 12px; font-style: normal; font-variant-ligatures: normal; font-variant-caps: normal; font-weight: 400; letter-spacing: normal; orphans: 2; text-align: center; text-indent: 0px; text-transform: none; widows: 2; word-spacing: 0px; -webkit-text-stroke-width: 0px; background-color: rgb(27, 29, 30); text-decoration-thickness: initial; text-decoration-style: initial; text-decoration-color: initial; float: none; display: inline !important;&quot;&gt;Mul&lt;/span&gt;&#xa;&#xa;" style="whiteSpace=wrap;html=1;aspect=fixed;" vertex="1" parent="1">
          <mxGeometry x="120" y="520" width="80" height="80" as="geometry" />
        </mxCell>
        <mxCell id="J1GzMyRLVdquHeXBhNb9-27" value="" style="endArrow=none;html=1;rounded=0;exitX=1;exitY=0.5;exitDx=0;exitDy=0;" edge="1" parent="1" source="J1GzMyRLVdquHeXBhNb9-26">
          <mxGeometry width="50" height="50" relative="1" as="geometry">
            <mxPoint x="400" y="780" as="sourcePoint" />
            <mxPoint x="270" y="560" as="targetPoint" />
          </mxGeometry>
        </mxCell>
        <mxCell id="J1GzMyRLVdquHeXBhNb9-28" value="reg" style="rounded=1;whiteSpace=wrap;html=1;" vertex="1" parent="1">
          <mxGeometry x="270" y="545" width="80" height="30" as="geometry" />
        </mxCell>
        <mxCell id="J1GzMyRLVdquHeXBhNb9-29" value="" style="endArrow=none;html=1;rounded=0;entryX=1;entryY=0.5;entryDx=0;entryDy=0;" edge="1" parent="1" target="J1GzMyRLVdquHeXBhNb9-28">
          <mxGeometry width="50" height="50" relative="1" as="geometry">
            <mxPoint x="400" y="560" as="sourcePoint" />
            <mxPoint x="450" y="730" as="targetPoint" />
          </mxGeometry>
        </mxCell>
        <mxCell id="J1GzMyRLVdquHeXBhNb9-30" value="" style="endArrow=none;html=1;rounded=0;" edge="1" parent="1">
          <mxGeometry width="50" height="50" relative="1" as="geometry">
            <mxPoint x="400" y="500" as="sourcePoint" />
            <mxPoint x="400" y="560" as="targetPoint" />
          </mxGeometry>
        </mxCell>
        <mxCell id="J1GzMyRLVdquHeXBhNb9-31" value="" style="endArrow=none;html=1;rounded=0;entryX=0;entryY=0.75;entryDx=0;entryDy=0;" edge="1" parent="1" target="J1GzMyRLVdquHeXBhNb9-25">
          <mxGeometry width="50" height="50" relative="1" as="geometry">
            <mxPoint x="400" y="500" as="sourcePoint" />
            <mxPoint x="450" y="470" as="targetPoint" />
          </mxGeometry>
        </mxCell>
        <mxCell id="J1GzMyRLVdquHeXBhNb9-32" value="" style="endArrow=none;html=1;rounded=0;" edge="1" parent="1">
          <mxGeometry width="50" height="50" relative="1" as="geometry">
            <mxPoint x="40" y="125" as="sourcePoint" />
            <mxPoint x="120" y="125" as="targetPoint" />
          </mxGeometry>
        </mxCell>
        <mxCell id="J1GzMyRLVdquHeXBhNb9-33" value="" style="endArrow=none;html=1;rounded=0;" edge="1" parent="1">
          <mxGeometry width="50" height="50" relative="1" as="geometry">
            <mxPoint x="40" y="285" as="sourcePoint" />
            <mxPoint x="120" y="285" as="targetPoint" />
          </mxGeometry>
        </mxCell>
        <mxCell id="J1GzMyRLVdquHeXBhNb9-34" value="" style="endArrow=none;html=1;rounded=0;" edge="1" parent="1">
          <mxGeometry width="50" height="50" relative="1" as="geometry">
            <mxPoint x="40" y="315" as="sourcePoint" />
            <mxPoint x="120" y="315" as="targetPoint" />
          </mxGeometry>
        </mxCell>
        <mxCell id="J1GzMyRLVdquHeXBhNb9-35" value="" style="endArrow=none;html=1;rounded=0;" edge="1" parent="1">
          <mxGeometry width="50" height="50" relative="1" as="geometry">
            <mxPoint x="40" y="385" as="sourcePoint" />
            <mxPoint x="120" y="385" as="targetPoint" />
          </mxGeometry>
        </mxCell>
        <mxCell id="J1GzMyRLVdquHeXBhNb9-36" value="" style="endArrow=none;html=1;rounded=0;" edge="1" parent="1">
          <mxGeometry width="50" height="50" relative="1" as="geometry">
            <mxPoint x="40" y="415" as="sourcePoint" />
            <mxPoint x="120" y="415" as="targetPoint" />
          </mxGeometry>
        </mxCell>
        <mxCell id="J1GzMyRLVdquHeXBhNb9-37" value="" style="endArrow=none;html=1;rounded=0;" edge="1" parent="1">
          <mxGeometry width="50" height="50" relative="1" as="geometry">
            <mxPoint x="40" y="545" as="sourcePoint" />
            <mxPoint x="120" y="545" as="targetPoint" />
          </mxGeometry>
        </mxCell>
        <mxCell id="J1GzMyRLVdquHeXBhNb9-38" value="" style="endArrow=none;html=1;rounded=0;" edge="1" parent="1">
          <mxGeometry width="50" height="50" relative="1" as="geometry">
            <mxPoint x="620" y="360" as="sourcePoint" />
            <mxPoint x="700" y="360" as="targetPoint" />
          </mxGeometry>
        </mxCell>
        <mxCell id="J1GzMyRLVdquHeXBhNb9-39" value="" style="endArrow=none;html=1;rounded=0;" edge="1" parent="1">
          <mxGeometry width="50" height="50" relative="1" as="geometry">
            <mxPoint x="620" y="315" as="sourcePoint" />
            <mxPoint x="700" y="315" as="targetPoint" />
          </mxGeometry>
        </mxCell>
        <mxCell id="J1GzMyRLVdquHeXBhNb9-40" value="" style="endArrow=none;html=1;rounded=0;" edge="1" parent="1">
          <mxGeometry width="50" height="50" relative="1" as="geometry">
            <mxPoint x="40" y="575" as="sourcePoint" />
            <mxPoint x="120" y="575" as="targetPoint" />
          </mxGeometry>
        </mxCell>
        <mxCell id="J1GzMyRLVdquHeXBhNb9-41" value="" style="endArrow=none;html=1;rounded=0;" edge="1" parent="1">
          <mxGeometry width="50" height="50" relative="1" as="geometry">
            <mxPoint x="560" y="219.5" as="sourcePoint" />
            <mxPoint x="620" y="220" as="targetPoint" />
          </mxGeometry>
        </mxCell>
        <mxCell id="J1GzMyRLVdquHeXBhNb9-42" value="" style="endArrow=none;html=1;rounded=0;" edge="1" parent="1">
          <mxGeometry width="50" height="50" relative="1" as="geometry">
            <mxPoint x="560" y="479.5" as="sourcePoint" />
            <mxPoint x="620" y="480" as="targetPoint" />
          </mxGeometry>
        </mxCell>
        <mxCell id="J1GzMyRLVdquHeXBhNb9-43" value="Adder" style="rounded=0;whiteSpace=wrap;html=1;" vertex="1" parent="1">
          <mxGeometry x="700" y="300" width="120" height="80" as="geometry" />
        </mxCell>
        <mxCell id="J1GzMyRLVdquHeXBhNb9-45" value="" style="endArrow=none;html=1;rounded=0;" edge="1" parent="1">
          <mxGeometry width="50" height="50" relative="1" as="geometry">
            <mxPoint x="620" y="315" as="sourcePoint" />
            <mxPoint x="620" y="220" as="targetPoint" />
          </mxGeometry>
        </mxCell>
        <mxCell id="J1GzMyRLVdquHeXBhNb9-46" value="" style="endArrow=none;html=1;rounded=0;" edge="1" parent="1">
          <mxGeometry width="50" height="50" relative="1" as="geometry">
            <mxPoint x="620" y="360" as="sourcePoint" />
            <mxPoint x="620" y="480" as="targetPoint" />
          </mxGeometry>
        </mxCell>
        <mxCell id="J1GzMyRLVdquHeXBhNb9-47" value="" style="endArrow=none;html=1;rounded=0;exitX=1;exitY=0.5;exitDx=0;exitDy=0;" edge="1" parent="1">
          <mxGeometry width="50" height="50" relative="1" as="geometry">
            <mxPoint x="820" y="339.5" as="sourcePoint" />
            <mxPoint x="890" y="339.5" as="targetPoint" />
          </mxGeometry>
        </mxCell>
        <mxCell id="J1GzMyRLVdquHeXBhNb9-48" value="reg" style="rounded=1;whiteSpace=wrap;html=1;" vertex="1" parent="1">
          <mxGeometry x="890" y="325" width="80" height="30" as="geometry" />
        </mxCell>
        <mxCell id="J1GzMyRLVdquHeXBhNb9-52" value="" style="endArrow=none;html=1;rounded=0;" edge="1" parent="1">
          <mxGeometry width="50" height="50" relative="1" as="geometry">
            <mxPoint x="970" y="340" as="sourcePoint" />
            <mxPoint x="1041.5999755859375" y="340" as="targetPoint" />
          </mxGeometry>
        </mxCell>
        <mxCell id="J1GzMyRLVdquHeXBhNb9-53" value="num1" style="text;html=1;align=center;verticalAlign=middle;resizable=0;points=[];autosize=1;strokeColor=none;fillColor=none;" vertex="1" parent="1">
          <mxGeometry x="55" y="90" width="50" height="30" as="geometry" />
        </mxCell>
        <mxCell id="J1GzMyRLVdquHeXBhNb9-54" value="" style="endArrow=none;html=1;rounded=0;" edge="1" parent="1">
          <mxGeometry width="50" height="50" relative="1" as="geometry">
            <mxPoint x="40" y="154" as="sourcePoint" />
            <mxPoint x="120" y="154" as="targetPoint" />
          </mxGeometry>
        </mxCell>
        <mxCell id="J1GzMyRLVdquHeXBhNb9-55" value="num3" style="text;html=1;align=center;verticalAlign=middle;resizable=0;points=[];autosize=1;strokeColor=none;fillColor=none;" vertex="1" parent="1">
          <mxGeometry x="50" y="350" width="50" height="30" as="geometry" />
        </mxCell>
        <mxCell id="J1GzMyRLVdquHeXBhNb9-56" value="num2" style="text;html=1;align=center;verticalAlign=middle;resizable=0;points=[];autosize=1;strokeColor=none;fillColor=none;rotation=0;" vertex="1" parent="1">
          <mxGeometry x="50" y="250" width="50" height="30" as="geometry" />
        </mxCell>
        <mxCell id="J1GzMyRLVdquHeXBhNb9-57" value="num4" style="text;html=1;align=center;verticalAlign=middle;resizable=0;points=[];autosize=1;strokeColor=none;fillColor=none;" vertex="1" parent="1">
          <mxGeometry x="55" y="500" width="50" height="30" as="geometry" />
        </mxCell>
        <mxCell id="J1GzMyRLVdquHeXBhNb9-58" value="weight1" style="text;html=1;align=center;verticalAlign=middle;resizable=0;points=[];autosize=1;strokeColor=none;fillColor=none;" vertex="1" parent="1">
          <mxGeometry x="50" y="160" width="60" height="30" as="geometry" />
        </mxCell>
        <mxCell id="J1GzMyRLVdquHeXBhNb9-59" value="weight2" style="text;html=1;align=center;verticalAlign=middle;resizable=0;points=[];autosize=1;strokeColor=none;fillColor=none;" vertex="1" parent="1">
          <mxGeometry x="50" y="315" width="60" height="30" as="geometry" />
        </mxCell>
        <mxCell id="J1GzMyRLVdquHeXBhNb9-60" value="weight3" style="text;html=1;align=center;verticalAlign=middle;resizable=0;points=[];autosize=1;strokeColor=none;fillColor=none;" vertex="1" parent="1">
          <mxGeometry x="50" y="420" width="60" height="30" as="geometry" />
        </mxCell>
        <mxCell id="J1GzMyRLVdquHeXBhNb9-61" value="weight4" style="text;html=1;align=center;verticalAlign=middle;resizable=0;points=[];autosize=1;strokeColor=none;fillColor=none;" vertex="1" parent="1">
          <mxGeometry x="45" y="580" width="60" height="30" as="geometry" />
        </mxCell>
        <mxCell id="J1GzMyRLVdquHeXBhNb9-62" value="mult1" style="text;html=1;align=center;verticalAlign=middle;resizable=0;points=[];autosize=1;strokeColor=none;fillColor=none;" vertex="1" parent="1">
          <mxGeometry x="210" y="110" width="50" height="30" as="geometry" />
        </mxCell>
        <mxCell id="J1GzMyRLVdquHeXBhNb9-63" value="mult2" style="text;html=1;align=center;verticalAlign=middle;resizable=0;points=[];autosize=1;strokeColor=none;fillColor=none;" vertex="1" parent="1">
          <mxGeometry x="210" y="270" width="50" height="30" as="geometry" />
        </mxCell>
        <mxCell id="J1GzMyRLVdquHeXBhNb9-64" value="mult3" style="text;html=1;align=center;verticalAlign=middle;resizable=0;points=[];autosize=1;strokeColor=none;fillColor=none;" vertex="1" parent="1">
          <mxGeometry x="210" y="370" width="50" height="30" as="geometry" />
        </mxCell>
        <mxCell id="J1GzMyRLVdquHeXBhNb9-65" value="mult4" style="text;html=1;align=center;verticalAlign=middle;resizable=0;points=[];autosize=1;strokeColor=none;fillColor=none;" vertex="1" parent="1">
          <mxGeometry x="210" y="530" width="50" height="30" as="geometry" />
        </mxCell>
        <mxCell id="J1GzMyRLVdquHeXBhNb9-66" value="R1Out" style="text;html=1;align=center;verticalAlign=middle;resizable=0;points=[];autosize=1;strokeColor=none;fillColor=none;" vertex="1" parent="1">
          <mxGeometry x="355" y="110" width="60" height="30" as="geometry" />
        </mxCell>
        <mxCell id="J1GzMyRLVdquHeXBhNb9-67" value="R2Out" style="text;html=1;align=center;verticalAlign=middle;resizable=0;points=[];autosize=1;strokeColor=none;fillColor=none;" vertex="1" parent="1">
          <mxGeometry x="350" y="300" width="60" height="30" as="geometry" />
        </mxCell>
        <mxCell id="J1GzMyRLVdquHeXBhNb9-68" value="R3Out" style="text;html=1;align=center;verticalAlign=middle;resizable=0;points=[];autosize=1;strokeColor=none;fillColor=none;" vertex="1" parent="1">
          <mxGeometry x="340" y="410" width="60" height="30" as="geometry" />
        </mxCell>
        <mxCell id="J1GzMyRLVdquHeXBhNb9-69" value="R4Out" style="text;html=1;align=center;verticalAlign=middle;resizable=0;points=[];autosize=1;strokeColor=none;fillColor=none;" vertex="1" parent="1">
          <mxGeometry x="340" y="530" width="60" height="30" as="geometry" />
        </mxCell>
        <mxCell id="J1GzMyRLVdquHeXBhNb9-71" value="add1" style="text;html=1;align=center;verticalAlign=middle;resizable=0;points=[];autosize=1;strokeColor=none;fillColor=none;" vertex="1" parent="1">
          <mxGeometry x="575" y="190" width="50" height="30" as="geometry" />
        </mxCell>
        <mxCell id="J1GzMyRLVdquHeXBhNb9-72" value="add2" style="text;html=1;align=center;verticalAlign=middle;resizable=0;points=[];autosize=1;strokeColor=none;fillColor=none;" vertex="1" parent="1">
          <mxGeometry x="570" y="450" width="50" height="30" as="geometry" />
        </mxCell>
        <mxCell id="J1GzMyRLVdquHeXBhNb9-73" value="add3" style="text;html=1;align=center;verticalAlign=middle;resizable=0;points=[];autosize=1;strokeColor=none;fillColor=none;" vertex="1" parent="1">
          <mxGeometry x="830" y="310" width="50" height="30" as="geometry" />
        </mxCell>
        <mxCell id="J1GzMyRLVdquHeXBhNb9-74" value="result" style="text;html=1;align=center;verticalAlign=middle;resizable=0;points=[];autosize=1;strokeColor=none;fillColor=none;" vertex="1" parent="1">
          <mxGeometry x="980" y="310" width="50" height="30" as="geometry" />
        </mxCell>
      </root>
    </mxGraphModel>
  </diagram>
</mxfile>
